<?xml version="1.0" encoding="utf-8"?>
<!-- Generator: Adobe Illustrator 18.0.0, SVG Export Plug-In . SVG Version: 6.00 Build 0)  -->
<!DOCTYPE svg PUBLIC "-//W3C//DTD SVG 1.1//EN" "http://www.w3.org/Graphics/SVG/1.1/DTD/svg11.dtd">
<svg version="1.1" class="enemy_ship" xmlns="http://www.w3.org/2000/svg" xmlns:xlink="http://www.w3.org/1999/xlink"
	 viewBox="400 70 300 380" width="133px" height="120" xml:space="preserve">
	<g>
		<g>
			<g>
				<rect x="364.8" y="239.8" fill="#F26522" width="13.9" height="58.2"/>
				<path fill="#1F2121" d="M382.2,301.5h-20.9v-65.2h20.9V301.5z M368.3,294.5h6.9v-51.2h-6.9V294.5z"/>
			</g>
			<g>
				<rect x="407.7" y="219.3" fill="#F26522" width="13.9" height="106.9"/>
				<path fill="#1F2121" d="M425.1,329.7h-20.9V215.8h20.9V329.7z M411.2,322.7h6.9v-99.9h-6.9V322.7z"/>
			</g>
			<g>
				<polygon fill="#F26522" points="545.1,266.3 545.1,360.5 464.8,342.3 464.8,272.8 				"/>
				<path fill="#1F2121" d="M548.6,364.9l-87.3-19.8v-75.6l87.3-7V364.9z M468.3,339.5l73.3,16.6v-86.1l-73.3,5.9V339.5z"/>
			</g>
			<g>
				<polygon fill="#0A82A3" points="464.8,272.8 391.9,272.8 391.9,322.1 464.8,351.1 				"/>
				<path fill="#1F2121" d="M468.3,356.3l-79.9-31.8v-55.2h79.9V356.3z M395.4,319.8l65.9,26.2v-69.7h-65.9V319.8z"/>
			</g>
			<g>
				<polygon fill="#F26522" points="391.9,272.8 336.1,272.8 336.1,295 391.9,313.4 				"/>
				<path fill="#1F2121" d="M395.4,318.3l-62.8-20.7v-28.2h62.8V318.3z M339.6,292.5l48.8,16.1v-32.3h-48.8V292.5z"/>
			</g>
			<g>
				<polygon fill="#1F2121" points="508.4,351.1 501.4,351.1 501.4,304.4 543.6,284.7 546.6,291 508.4,308.8 				"/>
			</g>
			<g>
				<polygon fill="#F26522" points="402.1,326.2 410.2,313.4 438.9,323.9 446.8,344 				"/>
				<path fill="#1F2121" d="M453,350.2l-56.1-22.3l11.8-18.8l32.8,12L453,350.2z M407.3,324.5l33.2,13.2l-4.4-11.1l-24.5-9
					L407.3,324.5z"/>
			</g>
			<g>
				<rect x="711.5" y="239.8" fill="#F26522" width="13.9" height="58.2"/>
				<path fill="#1F2121" d="M728.9,301.5H708v-65.2h20.9V301.5z M715,294.5h6.9v-51.2H715V294.5z"/>
			</g>
			<g>
				<rect x="668.6" y="219.3" fill="#F26522" width="13.9" height="106.9"/>
				<path fill="#1F2121" d="M686,329.7h-20.9V215.8H686V329.7z M672.1,322.7h6.9v-99.9h-6.9V322.7z"/>
			</g>
			<g>
				<polygon fill="#F26522" points="545.1,266.3 545.1,360.5 625.4,342.3 625.4,272.8 				"/>
				<path fill="#1F2121" d="M541.6,364.9V262.5l87.3,7v75.6L541.6,364.9z M548.6,270.1v86.1l73.3-16.6V276L548.6,270.1z"/>
			</g>
			<g>
				<polygon fill="#F26522" points="545.1,360.5 476.6,345 476.6,365.8 545.1,394.6 613.6,365.8 613.6,345 				"/>
				<path fill="#1F2121" d="M545.1,398.4l-72-30.3v-27.5l72,16.3l72-16.3v27.5L545.1,398.4z M480.1,363.5l65,27.4l65-27.4v-14.1
					l-65,14.7l-65-14.7V363.5z"/>
			</g>
			<g>
				<polygon fill="#0A82A3" points="625.4,272.8 698.3,272.8 698.3,322.1 625.4,351.1 				"/>
				<path fill="#1F2121" d="M621.9,356.3v-87h79.9v55.2L621.9,356.3z M628.9,276.3V346l65.9-26.2v-43.5H628.9z"/>
			</g>
			<g>
				<polygon fill="#F26522" points="698.3,272.8 754.1,272.8 754.1,295 698.3,313.4 				"/>
				<path fill="#1F2121" d="M694.8,318.3v-49h62.8v28.2L694.8,318.3z M701.8,276.3v32.3l48.8-16.1v-16.2H701.8z"/>
			</g>
			<g>
				<polygon fill="#1F2121" points="588.7,351.1 581.7,351.1 581.7,308.8 543.6,291 546.6,284.7 588.7,304.4 				"/>
			</g>
			<g>
				<polygon fill="#F26522" points="688,326.2 680,313.4 651.3,323.9 643.4,344 				"/>
				<path fill="#1F2121" d="M637.2,350.2l11.5-29.1l32.8-12l11.8,18.8L637.2,350.2z M654,326.7l-4.4,11.1l33.2-13.2l-4.3-6.8
					L654,326.7z"/>
			</g>
		</g>
		<g>
			<g>
				<polygon fill="#0A82A3" points="592.4,275.7 644.5,198.5 644.5,145.2 592.4,199.6 				"/>
				<path fill="#1F2121" d="M588.9,287.2v-89l59.1-61.7v63L588.9,287.2z M595.9,201v63.3l45.1-66.9v-43.5L595.9,201z"/>
			</g>
			<g>
				<polygon fill="#F26522" points="520.3,358 545.1,440.8 569.9,358 592.4,275.7 592.4,199.6 545.1,69.7 497.8,199.6 497.8,275.7 
									"/>
				<path fill="#1F2121" d="M545.1,452.9L516.9,359l-22.6-82.8V199l0.2-0.6l50.6-138.9L595.9,199v77.2l-22.6,82.7L545.1,452.9z
					 M501.3,275.3l22.3,81.8l21.4,71.5l21.5-71.6l22.3-81.7v-75L545.1,79.9l-43.8,120.3V275.3z"/>
			</g>
			<g>
				<polygon fill="#0A82A3" points="526.1,266.4 545.1,299.1 564.1,266.4 581.2,233.9 581.2,203.8 545.1,184.2 509,203.8 509,233.9 
									"/>
				<path fill="#1F2121" d="M545.1,306L523,268l-17.6-33.3v-33l39.6-21.5l39.6,21.5v33l-17.6,33.4L545.1,306z M529.2,264.7
					l15.9,27.4l15.9-27.4l16.7-31.7v-27.1l-32.6-17.7l-32.6,17.7V233L529.2,264.7z"/>
			</g>
			<g>
				<polygon fill="#0A82A3" points="497.8,275.7 445.7,198.5 445.7,145.2 497.8,199.6 				"/>
				<path fill="#1F2121" d="M501.3,287.2l-59.1-87.6v-63l59.1,61.7V287.2z M449.2,197.4l45.1,66.9V201l-45.1-47.1V197.4z"/>
			</g>
			<g>
				<polygon fill="#0A82A3" points="566.4,369.8 556.7,351.3 566.4,307.7 587,295.3 				"/>
				<path fill="#1F2121" d="M567.4,379.3L553,351.8l10.3-46.3l29.5-17.7L567.4,379.3z M560.4,350.8l5,9.5l15.9-57.5l-11.8,7.1
					L560.4,350.8z"/>
			</g>
			<g>
				<polygon fill="#0A82A3" points="523.8,369.8 533.5,351.3 523.8,307.7 503.2,295.3 				"/>
				<path fill="#1F2121" d="M522.8,379.3l-25.4-91.5l29.5,17.7l10.3,46.3L522.8,379.3z M508.9,302.9l15.9,57.5l5-9.5l-9.1-40.9
					L508.9,302.9z"/>
			</g>
			<g>
				<rect x="541.6" y="367.2" fill="#1F2121" width="7" height="73.5"/>
			</g>
			<g>
				<rect x="541.6" y="346.7" fill="#1F2121" width="7" height="12.9"/>
			</g>
			<g>
				<rect x="541.6" y="327.6" fill="#1F2121" width="7" height="9.3"/>
			</g>
			<g>
				<polygon fill="#F26522" points="608.4,252 608.4,231.5 619.7,215.4 634.4,213.5 				"/>
				<path fill="#1F2121" d="M604.9,263.4v-33.1l12.9-18.3l23.8-3L604.9,263.4z M611.9,232.6v8l15.3-22.6l-5.5,0.7L611.9,232.6z"/>
			</g>
			<g>
				<polygon fill="#F26522" points="481.8,252 481.8,231.5 470.5,215.4 455.8,213.5 				"/>
				<path fill="#1F2121" d="M485.3,263.4l-36.7-54.4l23.8,3l12.9,18.3V263.4z M463,218l15.3,22.6v-8l-9.8-13.9L463,218z"/>
			</g>
		</g>
		<g>
			<path fill="#F26522" d="M435.1,120.1L435.1,120.1c-5.9,0-10.7,4.8-10.7,10.7v72.1c0,5.9,4.8,10.7,10.7,10.7h0
				c5.9,0,10.7-4.8,10.7-10.7v-72.1C445.8,124.8,441,120.1,435.1,120.1z"/>
			<path fill="#1F2121" d="M435.1,217c-7.8,0-14.2-6.4-14.2-14.2v-72.1c0-7.8,6.4-14.2,14.2-14.2s14.2,6.4,14.2,14.2v72.1
				C449.3,210.6,443,217,435.1,217z M435.1,123.6c-4,0-7.2,3.2-7.2,7.2v72.1c0,4,3.2,7.2,7.2,7.2s7.2-3.2,7.2-7.2v-72.1
				C442.3,126.8,439.1,123.6,435.1,123.6z"/>
		</g>
		<g>
			<path fill="#F26522" d="M655,120.1L655,120.1c5.9,0,10.7,4.8,10.7,10.7v72.1c0,5.9-4.8,10.7-10.7,10.7h0
				c-5.9,0-10.7-4.8-10.7-10.7v-72.1C644.4,124.8,649.1,120.1,655,120.1z"/>
			<path fill="#1F2121" d="M655,217c-7.8,0-14.2-6.4-14.2-14.2v-72.1c0-7.8,6.4-14.2,14.2-14.2s14.2,6.4,14.2,14.2v72.1
				C669.2,210.6,662.9,217,655,217z M655,123.6c-4,0-7.2,3.2-7.2,7.2v72.1c0,4,3.2,7.2,7.2,7.2s7.2-3.2,7.2-7.2v-72.1
				C662.2,126.8,659,123.6,655,123.6z"/>
		</g>
    <g class="text">
      <rect x="300" y="120" fill="#ffffff88" width="1000" height="130"/>
      <text x="400" y="220" class="chordText" style="font: bold 100px sans-serif;">error</text>
    </g>
	</g>
</svg>
