<?xml version="1.0" encoding="utf-8"?>
<!-- Generator: Adobe Illustrator 18.0.0, SVG Export Plug-In . SVG Version: 6.00 Build 0)  -->
<!DOCTYPE svg PUBLIC "-//W3C//DTD SVG 1.1//EN" "http://www.w3.org/Graphics/SVG/1.1/DTD/svg11.dtd">
<svg version="1.1" id="starship_1" xmlns="http://www.w3.org/2000/svg" xmlns:xlink="http://www.w3.org/1999/xlink" width="92px" viewBox="175 80 10 350" height="120px">
<g>
  <g>
    <polygon fill="#F26522" points="126.9,304.6 81.5,319.7 81.5,362.4 126.9,371.7 			"/>
    <path fill="#1F2121" d="M130.4,376L78,365.3v-48.2l52.4-17.3V376z M85,359.6l38.4,7.9v-58L85,322.2V359.6z"/>
  </g>
  <g>
    <polygon fill="#0A82A3" points="81.5,386.1 68.2,399 54.8,386.1 54.8,298.3 68.2,260.7 81.5,298.3 			"/>
    <path fill="#1F2121" d="M68.1,403.9l-16.9-16.3v-89.9l16.9-47.4L85,297.7v89.9L68.1,403.9z M58.3,384.6l9.9,9.5l9.9-9.5v-85.8
      l-9.9-27.7l-9.9,27.7V384.6z"/>
  </g>
  <g>
    <polygon fill="#F26522" points="228.4,210.4 192.8,89.9 181.2,85.4 169.7,89.9 134,210.4 126.9,304.6 126.9,371.7 147.4,404.8 
      181.2,425 215.1,404.8 235.6,371.7 235.6,304.6 			"/>
    <path fill="#1F2121" d="M181.2,429.1l-36.4-21.8l-21.5-34.6l0-68.4l7.2-94.7l36.2-122.5l14.4-5.6l14.4,5.6l36.2,122.5l0,0.4
      l7.1,94.6v68.1l-21.5,34.6L181.2,429.1z M149.9,402.2l31.3,18.8l31.3-18.8l19.5-31.5v-66L225,211L190,92.5l-8.7-3.4l-8.7,3.4
      l-35,118.5l-7.1,93.8v66L149.9,402.2z"/>
  </g>
  <g>
    <polygon fill="#F26522" points="235.6,304.6 281,319.7 281,362.4 235.6,371.7 			"/>
    <path fill="#1F2121" d="M232.1,376v-76.2l52.4,17.3v48.2L232.1,376z M239.1,309.5v58l38.4-7.9v-37.4L239.1,309.5z"/>
  </g>
  <g>
    <polygon fill="#0A82A3" points="281,386.1 294.3,399 307.7,386.1 307.7,298.3 294.3,260.7 281,298.3 			"/>
    <path fill="#1F2121" d="M294.3,403.9l-16.9-16.3v-89.9l16.9-47.4l16.9,47.4v89.9L294.3,403.9z M284.5,384.6l9.9,9.5l9.9-9.5
      v-85.8l-9.9-27.7l-9.9,27.7V384.6z"/>
  </g>
  <g>
    <polygon fill="#F26522" points="181.2,278.4 144.6,301.8 144.6,362 181.2,362 217.9,362 217.9,301.8 			"/>
    <path fill="#1F2121" d="M221.4,365.5h-80.4v-65.6l40.2-25.6l40.2,25.6V365.5z M148.1,358.5h66.4v-54.8l-33.2-21.2l-33.2,21.2
      V358.5z"/>
  </g>
  <g>
    <polygon fill="#0A82A3" points="181.2,250.5 144.6,290.1 144.6,301.8 181.2,278.4 217.9,301.8 217.9,290.1 			"/>
    <path fill="#1F2121" d="M221.4,308.2l-40.2-25.6l-40.2,25.6v-19.5l40.2-43.4l40.2,43.4V308.2z M181.2,274.3l33.2,21.2v-3.9
      l-33.2-35.8l-33.2,35.8v3.9L181.2,274.3z"/>
  </g>
  <g>
    <polygon fill="#0A82A3" points="155.7,137.2 165.9,152.8 157.4,186.7 137.5,198.8 			"/>
    <path fill="#1F2121" d="M131.5,206.5l22.9-77.6l15.2,23.3l-9.2,36.8L131.5,206.5z M156.9,145.4l-13.5,45.7l11-6.7l7.8-31
      L156.9,145.4z"/>
  </g>
  <g>
    <polygon fill="#0A82A3" points="206.8,137.2 196.6,152.8 205.1,186.7 225,198.8 			"/>
    <path fill="#1F2121" d="M231,206.5L202,189l-9.2-36.8l15.2-23.3L231,206.5z M208.1,184.5l11,6.7l-13.5-45.7l-5.2,8L208.1,184.5z"
      />
  </g>
  <g>
    <path fill="#1F2121" d="M181.2,281.9c-1.9,0-3.5-1.6-3.5-3.5v-193c0-1.9,1.6-3.5,3.5-3.5s3.5,1.6,3.5,3.5v193
      C184.7,280.4,183.2,281.9,181.2,281.9z"/>
  </g>
  <g>
    <path fill="#1F2121" d="M114.1,337.4c-1.9,0-3.5-1.6-3.5-3.5v-25c0-1.9,1.6-3.5,3.5-3.5s3.5,1.6,3.5,3.5v25
      C117.6,335.8,116.1,337.4,114.1,337.4z"/>
  </g>
  <g>
    <path fill="#1F2121" d="M95.2,343.4c-1.9,0-3.5-1.6-3.5-3.5v-24.7c0-1.9,1.6-3.5,3.5-3.5s3.5,1.6,3.5,3.5v24.7
      C98.7,341.8,97.1,343.4,95.2,343.4z"/>
  </g>
  <g>
    <path fill="#1F2121" d="M248.4,337.4c-1.9,0-3.5-1.6-3.5-3.5v-25c0-1.9,1.6-3.5,3.5-3.5s3.5,1.6,3.5,3.5v25
      C251.9,335.8,250.3,337.4,248.4,337.4z"/>
  </g>
  <g>
    <path fill="#1F2121" d="M267.3,343.4c-1.9,0-3.5-1.6-3.5-3.5v-24.7c0-1.9,1.6-3.5,3.5-3.5s3.5,1.6,3.5,3.5v24.7
      C270.8,341.8,269.2,343.4,267.3,343.4z"/>
  </g>
  <g>
    <path fill="#1F2121" d="M155.3,213.9H134c-1.9,0-3.5-1.6-3.5-3.5s1.6-3.5,3.5-3.5h21.2c1.9,0,3.5,1.6,3.5,3.5
      S157.2,213.9,155.3,213.9z"/>
  </g>
  <g>
    <path fill="#1F2121" d="M151.7,227.7H133c-1.9,0-3.5-1.6-3.5-3.5s1.6-3.5,3.5-3.5h18.7c1.9,0,3.5,1.6,3.5,3.5
      S153.6,227.7,151.7,227.7z"/>
  </g>
  <g>
    <path fill="#1F2121" d="M228.4,213.9h-21.2c-1.9,0-3.5-1.6-3.5-3.5s1.6-3.5,3.5-3.5h21.2c1.9,0,3.5,1.6,3.5,3.5
      S230.4,213.9,228.4,213.9z"/>
  </g>
  <g>
    <path fill="#1F2121" d="M229.5,227.7h-18.7c-1.9,0-3.5-1.6-3.5-3.5s1.6-3.5,3.5-3.5h18.7c1.9,0,3.5,1.6,3.5,3.5
      S231.4,227.7,229.5,227.7z"/>
  </g>
  <g>
    <polygon fill="#F26522" points="54.8,311.2 68.2,321.3 68.2,356.7 54.8,371.7 			"/>
    <path fill="#1F2121" d="M51.3,380.9v-76.8l20.4,15.5V358L51.3,380.9z M58.3,318.2v44.3l6.4-7.2v-32.3L58.3,318.2z"/>
  </g>
  <g>
    <polygon fill="#F26522" points="307.7,311.2 294.3,321.3 294.3,356.7 307.7,371.7 			"/>
    <path fill="#1F2121" d="M311.2,380.9L290.8,358v-38.5l20.4-15.5V380.9z M297.8,355.4l6.4,7.2v-44.3l-6.4,4.8V355.4z"/>
  </g>
  <g>
    <polygon fill="#0A82A3" points="147.4,404.8 181.2,374.1 215.1,404.8 181.2,425 			"/>
    <path fill="#1F2121" d="M181.2,428.5c-0.6,0-1.2-0.2-1.8-0.5l-33.8-20.3c-1-0.6-1.6-1.6-1.7-2.7c-0.1-1.1,0.3-2.2,1.1-2.9
      l33.8-30.7c1.3-1.2,3.4-1.2,4.7,0l33.8,30.7c0.8,0.7,1.2,1.8,1.1,2.9c-0.1,1.1-0.7,2.1-1.7,2.7L183,428
      C182.5,428.4,181.9,428.5,181.2,428.5z M153.3,404.2l28,16.8l28-16.8l-28-25.4L153.3,404.2z"/>
  </g>
</g>
</svg>
